G04*
G04 #@! TF.GenerationSoftware,Altium Limited,Altium Designer,18.1.7 (191)*
G04*
G04 Layer_Physical_Order=1*
G04 Layer_Color=255*
%FSLAX25Y25*%
%MOIN*%
G70*
G01*
G75*
%ADD17C,0.01000*%
%ADD19R,0.05118X0.03937*%
%ADD20R,0.04764X0.02284*%
%ADD23R,0.05906X0.05118*%
%ADD24R,0.03937X0.03543*%
%ADD25R,0.04724X0.04724*%
%ADD26R,0.08268X0.11811*%
%ADD27R,0.03150X0.06299*%
%ADD28R,0.02835X0.02835*%
%ADD29R,0.02126X0.02362*%
%ADD42O,0.01181X0.06890*%
%ADD43O,0.06890X0.01181*%
%ADD44R,0.06299X0.06299*%
%ADD45C,0.00787*%
D17*
X206102Y102618D02*
X223248D01*
X212449Y102650D02*
Y129425D01*
X202756Y139118D02*
X212449Y129425D01*
X174311Y139118D02*
X202756D01*
X250969Y111961D02*
X251279Y111650D01*
X238480Y111961D02*
X250969D01*
X238280Y102650D02*
X251279D01*
X223280D02*
X234878D01*
X234768Y111650D02*
X235079Y111961D01*
X223280Y111650D02*
X234768D01*
X223248Y102618D02*
X223280Y102650D01*
X222779Y112150D02*
X223280Y111650D01*
X214779Y112150D02*
X222779D01*
X81279Y77650D02*
Y85650D01*
Y77650D02*
X81779Y77150D01*
Y58650D02*
Y67150D01*
X118280Y138650D02*
X118780Y138150D01*
Y131650D02*
Y138150D01*
X81779Y77150D02*
X81902Y77028D01*
X146457D01*
Y76906D02*
Y77028D01*
X79220Y107909D02*
X83780D01*
X83039Y115390D02*
X86279Y112150D01*
X79220Y111650D02*
X85780D01*
X86279Y112150D01*
X131280D01*
X138842Y104587D01*
X146457D01*
X79220Y115390D02*
X83039D01*
X140811Y102618D02*
X146457D01*
X137779Y102150D02*
X139279Y100650D01*
X131280Y102150D02*
X137779D01*
X138279Y98681D02*
X146457D01*
X133874Y94276D02*
X138279Y98681D01*
X89280Y117650D02*
Y124650D01*
X83780Y107650D02*
Y107909D01*
Y105150D02*
Y107650D01*
X81279Y102650D02*
X83780Y105150D01*
X65280Y102650D02*
X81279D01*
X64280Y103650D02*
X65280Y102650D01*
X64280Y103650D02*
Y104650D01*
X67539Y107909D01*
X69339D01*
X51279Y124150D02*
Y131150D01*
X62279Y111650D02*
X69339D01*
X69098Y115150D02*
X69339Y115390D01*
X51279Y115150D02*
X69098D01*
X51279Y94650D02*
Y115150D01*
Y85650D02*
X81279D01*
X104279Y133650D02*
Y139650D01*
X103027Y140902D02*
X104279Y139650D01*
X90531Y140902D02*
X103027D01*
X89280Y139650D02*
X90531Y140902D01*
X89280Y133650D02*
Y139650D01*
Y124650D02*
X104279D01*
X104657Y124272D01*
X146457D01*
X135780Y154650D02*
Y161650D01*
X118280Y147650D02*
X135780D01*
X162398Y147854D02*
Y152941D01*
Y142768D02*
Y147854D01*
X162193Y147650D02*
X162398Y147854D01*
X135780Y147650D02*
X162193D01*
X118280Y138650D02*
X118748Y139118D01*
X155311D01*
X174311Y130472D02*
Y139118D01*
X154626Y40996D02*
Y48150D01*
X160531Y130472D02*
Y138150D01*
X160531Y140902D02*
X162398Y142768D01*
X160531Y138150D02*
Y140902D01*
X160531Y138150D02*
X160531Y138150D01*
X139279Y100650D02*
X146457D01*
X131280Y94276D02*
X133874D01*
X140279Y96713D02*
X146457D01*
X115811Y94276D02*
Y102150D01*
X119748Y94276D02*
X131280D01*
X119748Y102150D02*
X131280D01*
X206102Y100650D02*
X212449D01*
X162779Y23650D02*
Y30201D01*
Y39650D02*
Y50650D01*
X162500Y57929D02*
X162779Y57650D01*
X162500Y57929D02*
Y70827D01*
X154626Y57150D02*
Y70827D01*
X152657Y65150D02*
Y70827D01*
X172343Y130472D02*
Y136587D01*
X186122Y130472D02*
Y136587D01*
X182083Y146252D02*
Y152941D01*
X167280Y152902D02*
X167319Y152941D01*
X167280Y143902D02*
Y152902D01*
Y143902D02*
X170374Y140807D01*
Y130472D02*
Y140807D01*
D19*
X131280Y94276D02*
D03*
Y102150D02*
D03*
D20*
X79220Y115390D02*
D03*
Y111650D02*
D03*
Y107909D02*
D03*
X69339D02*
D03*
Y111650D02*
D03*
Y115390D02*
D03*
D23*
X104279Y133650D02*
D03*
Y124650D02*
D03*
X51279Y115150D02*
D03*
Y124150D02*
D03*
X118280Y138650D02*
D03*
Y147650D02*
D03*
X51279Y85650D02*
D03*
Y94650D02*
D03*
X251279Y111650D02*
D03*
Y102650D02*
D03*
X223280Y111650D02*
D03*
Y102650D02*
D03*
X89280Y133650D02*
D03*
Y124650D02*
D03*
X154626Y57150D02*
D03*
Y48150D02*
D03*
D24*
X162779Y50650D02*
D03*
Y57650D02*
D03*
X135780Y154650D02*
D03*
Y147650D02*
D03*
D25*
X162779Y39650D02*
D03*
Y30201D02*
D03*
D26*
X147437Y164358D02*
D03*
X192122D02*
D03*
D27*
X157476Y152941D02*
D03*
X167319D02*
D03*
X172240D02*
D03*
X177161D02*
D03*
X182083D02*
D03*
X162398D02*
D03*
D28*
X119748Y102150D02*
D03*
X115811D02*
D03*
X119748Y94276D02*
D03*
X115811D02*
D03*
D29*
X235079Y111961D02*
D03*
X238480D02*
D03*
X234878Y102650D02*
D03*
X238280D02*
D03*
D42*
X152657Y130472D02*
D03*
X154626D02*
D03*
X156595D02*
D03*
X158563Y130472D02*
D03*
X160531D02*
D03*
X162500D02*
D03*
X164469D02*
D03*
X166437Y130472D02*
D03*
X168405Y130472D02*
D03*
X170374D02*
D03*
X172343D02*
D03*
X174311D02*
D03*
X176279D02*
D03*
X178248Y130472D02*
D03*
X180217D02*
D03*
X182185Y130472D02*
D03*
X184153D02*
D03*
X186122D02*
D03*
X188091D02*
D03*
X190059D02*
D03*
X192028Y130472D02*
D03*
X193996D02*
D03*
X195965D02*
D03*
X197933Y130472D02*
D03*
X199902D02*
D03*
Y70827D02*
D03*
X197933Y70827D02*
D03*
X195965D02*
D03*
X193996Y70827D02*
D03*
X192028D02*
D03*
X190059Y70827D02*
D03*
X188091D02*
D03*
X186122Y70827D02*
D03*
X184153D02*
D03*
X182185D02*
D03*
X180217D02*
D03*
X178248D02*
D03*
X176279D02*
D03*
X174311D02*
D03*
X172343D02*
D03*
X170374D02*
D03*
X168405D02*
D03*
X166437D02*
D03*
X164469Y70827D02*
D03*
X162500D02*
D03*
X160531Y70827D02*
D03*
X158563D02*
D03*
X156595Y70827D02*
D03*
X154626D02*
D03*
X152657D02*
D03*
D43*
X206102Y124272D02*
D03*
Y122303D02*
D03*
Y120335D02*
D03*
Y118366D02*
D03*
Y116398D02*
D03*
Y114429D02*
D03*
Y112461D02*
D03*
X206102Y110492D02*
D03*
X206102Y108524D02*
D03*
Y106555D02*
D03*
Y104587D02*
D03*
X206102Y102618D02*
D03*
Y100650D02*
D03*
Y98681D02*
D03*
Y96713D02*
D03*
X206102Y94744D02*
D03*
Y92776D02*
D03*
Y90807D02*
D03*
Y88839D02*
D03*
Y86870D02*
D03*
Y84902D02*
D03*
Y82933D02*
D03*
Y80965D02*
D03*
Y78996D02*
D03*
Y77028D02*
D03*
X146457D02*
D03*
Y78996D02*
D03*
Y80965D02*
D03*
X146457Y82933D02*
D03*
Y84902D02*
D03*
X146457Y86870D02*
D03*
Y88839D02*
D03*
X146457Y90807D02*
D03*
X146457Y92776D02*
D03*
Y94744D02*
D03*
X146457Y96713D02*
D03*
Y98681D02*
D03*
Y100650D02*
D03*
Y102618D02*
D03*
Y104587D02*
D03*
X146457Y106555D02*
D03*
Y108524D02*
D03*
X146457Y110492D02*
D03*
X146457Y112461D02*
D03*
Y114429D02*
D03*
Y116398D02*
D03*
Y118366D02*
D03*
Y120335D02*
D03*
Y122303D02*
D03*
Y124272D02*
D03*
D44*
X81779Y77150D02*
D03*
Y67150D02*
D03*
D45*
X243280Y102650D02*
D03*
X214779Y112150D02*
D03*
X131280D02*
D03*
X81279Y85650D02*
D03*
X81779Y58650D02*
D03*
X118780Y131650D02*
D03*
X140811Y102618D02*
D03*
X89280Y117650D02*
D03*
X83780Y107650D02*
D03*
X51279Y131150D02*
D03*
X62279Y111650D02*
D03*
X96280Y140902D02*
D03*
X135780Y161650D02*
D03*
X155311Y139118D02*
D03*
X174311D02*
D03*
X154626Y40996D02*
D03*
X140279Y96713D02*
D03*
X115811Y98213D02*
D03*
X212449Y100650D02*
D03*
X162779Y23650D02*
D03*
X152657Y65150D02*
D03*
X182083Y146252D02*
D03*
X186122Y136587D02*
D03*
X172343D02*
D03*
M02*
