G04*
G04 #@! TF.GenerationSoftware,Altium Limited,Altium Designer,18.1.7 (191)*
G04*
G04 Layer_Physical_Order=2*
G04 Layer_Color=16711680*
%FSLAX25Y25*%
%MOIN*%
G70*
G01*
G75*
%ADD17C,0.01000*%
%ADD44R,0.06299X0.06299*%
%ADD45C,0.00787*%
G36*
X263779Y19685D02*
X15748D01*
Y181102D01*
X263779D01*
Y19685D01*
D02*
G37*
%LPC*%
G36*
X136279Y162971D02*
Y162150D01*
X137101D01*
X137092Y162193D01*
X136784Y162654D01*
X136323Y162962D01*
X136279Y162971D01*
D02*
G37*
G36*
X135280D02*
X135236Y162962D01*
X134775Y162654D01*
X134467Y162193D01*
X134458Y162150D01*
X135280D01*
Y162971D01*
D02*
G37*
G36*
X137101Y161150D02*
X136279D01*
Y160328D01*
X136323Y160337D01*
X136784Y160645D01*
X137092Y161106D01*
X137101Y161150D01*
D02*
G37*
G36*
X135280D02*
X134458D01*
X134467Y161106D01*
X134775Y160645D01*
X135236Y160337D01*
X135280Y160328D01*
Y161150D01*
D02*
G37*
G36*
X182583Y147573D02*
Y146752D01*
X183404D01*
X183396Y146796D01*
X183088Y147257D01*
X182626Y147565D01*
X182583Y147573D01*
D02*
G37*
G36*
X181583D02*
X181539Y147565D01*
X181078Y147257D01*
X180770Y146796D01*
X180761Y146752D01*
X181583D01*
Y147573D01*
D02*
G37*
G36*
X183404Y145752D02*
X182583D01*
Y144930D01*
X182626Y144939D01*
X183088Y145247D01*
X183396Y145708D01*
X183404Y145752D01*
D02*
G37*
G36*
X181583D02*
X180761D01*
X180770Y145708D01*
X181078Y145247D01*
X181539Y144939D01*
X181583Y144930D01*
Y145752D01*
D02*
G37*
G36*
X96780Y142223D02*
Y141402D01*
X97601D01*
X97592Y141445D01*
X97284Y141906D01*
X96823Y142214D01*
X96780Y142223D01*
D02*
G37*
G36*
X95780D02*
X95736Y142214D01*
X95275Y141906D01*
X94967Y141445D01*
X94958Y141402D01*
X95780D01*
Y142223D01*
D02*
G37*
G36*
X97601Y140402D02*
X96780D01*
Y139580D01*
X96823Y139589D01*
X97284Y139897D01*
X97592Y140358D01*
X97601Y140402D01*
D02*
G37*
G36*
X95780D02*
X94958D01*
X94967Y140358D01*
X95275Y139897D01*
X95736Y139589D01*
X95780Y139580D01*
Y140402D01*
D02*
G37*
G36*
X186622Y137908D02*
Y137087D01*
X187444D01*
X187435Y137130D01*
X187127Y137591D01*
X186666Y137899D01*
X186622Y137908D01*
D02*
G37*
G36*
X185622D02*
X185578Y137899D01*
X185117Y137591D01*
X184809Y137130D01*
X184801Y137087D01*
X185622D01*
Y137908D01*
D02*
G37*
G36*
X174311Y140647D02*
X155311D01*
X154726Y140531D01*
X154230Y140199D01*
X153898Y139703D01*
X153782Y139118D01*
X153898Y138533D01*
X154230Y138037D01*
X154726Y137705D01*
X155311Y137589D01*
X170806D01*
X171008Y137210D01*
X171021Y137089D01*
X171021Y137087D01*
X173664D01*
X173664Y137089D01*
X173677Y137210D01*
X173880Y137589D01*
X174311D01*
X174896Y137705D01*
X175392Y138037D01*
X175724Y138533D01*
X175840Y139118D01*
X175724Y139703D01*
X175392Y140199D01*
X174896Y140531D01*
X174311Y140647D01*
D02*
G37*
G36*
X187444Y136087D02*
X186622D01*
Y135265D01*
X186666Y135274D01*
X187127Y135582D01*
X187435Y136043D01*
X187444Y136087D01*
D02*
G37*
G36*
X185622D02*
X184801D01*
X184809Y136043D01*
X185117Y135582D01*
X185578Y135274D01*
X185622Y135265D01*
Y136087D01*
D02*
G37*
G36*
X173664D02*
X172843D01*
Y135265D01*
X172886Y135274D01*
X173347Y135582D01*
X173655Y136043D01*
X173664Y136087D01*
D02*
G37*
G36*
X171843D02*
X171021D01*
X171030Y136043D01*
X171338Y135582D01*
X171799Y135274D01*
X171843Y135265D01*
Y136087D01*
D02*
G37*
G36*
X51780Y132471D02*
Y131650D01*
X52601D01*
X52592Y131693D01*
X52284Y132154D01*
X51823Y132462D01*
X51780Y132471D01*
D02*
G37*
G36*
X50779D02*
X50736Y132462D01*
X50275Y132154D01*
X49967Y131693D01*
X49958Y131650D01*
X50779D01*
Y132471D01*
D02*
G37*
G36*
X52601Y130650D02*
X51780D01*
Y129828D01*
X51823Y129837D01*
X52284Y130145D01*
X52592Y130606D01*
X52601Y130650D01*
D02*
G37*
G36*
X50779D02*
X49958D01*
X49967Y130606D01*
X50275Y130145D01*
X50736Y129837D01*
X50779Y129828D01*
Y130650D01*
D02*
G37*
G36*
X62779Y112971D02*
Y112150D01*
X63601D01*
X63592Y112193D01*
X63284Y112654D01*
X62823Y112962D01*
X62779Y112971D01*
D02*
G37*
G36*
X61779D02*
X61736Y112962D01*
X61275Y112654D01*
X60967Y112193D01*
X60958Y112150D01*
X61779D01*
Y112971D01*
D02*
G37*
G36*
X214779Y113679D02*
X131280D01*
X130694Y113563D01*
X130198Y113231D01*
X129867Y112735D01*
X129750Y112150D01*
X129867Y111564D01*
X130198Y111068D01*
X130694Y110737D01*
X131280Y110620D01*
X214779D01*
X215365Y110737D01*
X215861Y111068D01*
X216193Y111564D01*
X216309Y112150D01*
X216193Y112735D01*
X215861Y113231D01*
X215365Y113563D01*
X214779Y113679D01*
D02*
G37*
G36*
X63601Y111150D02*
X62779D01*
Y110328D01*
X62823Y110337D01*
X63284Y110645D01*
X63592Y111106D01*
X63601Y111150D01*
D02*
G37*
G36*
X61779D02*
X60958D01*
X60967Y111106D01*
X61275Y110645D01*
X61736Y110337D01*
X61779Y110328D01*
Y111150D01*
D02*
G37*
G36*
X89280Y119179D02*
X88694Y119063D01*
X88198Y118731D01*
X87867Y118235D01*
X87750Y117650D01*
Y111783D01*
X85146Y109179D01*
X83780D01*
X83194Y109063D01*
X82698Y108731D01*
X82367Y108235D01*
X82250Y107650D01*
X82367Y107064D01*
X82698Y106568D01*
X83194Y106237D01*
X83780Y106120D01*
X85780D01*
X86365Y106237D01*
X86861Y106568D01*
X90361Y110068D01*
X90693Y110564D01*
X90809Y111150D01*
Y117650D01*
X90693Y118235D01*
X90361Y118731D01*
X89865Y119063D01*
X89280Y119179D01*
D02*
G37*
G36*
X243779Y103971D02*
Y103150D01*
X244601D01*
X244592Y103193D01*
X244284Y103654D01*
X243823Y103962D01*
X243779Y103971D01*
D02*
G37*
G36*
X242779D02*
X242736Y103962D01*
X242275Y103654D01*
X241967Y103193D01*
X241958Y103150D01*
X242779D01*
Y103971D01*
D02*
G37*
G36*
X141311Y103940D02*
Y103118D01*
X142133D01*
X142124Y103162D01*
X141816Y103623D01*
X141355Y103931D01*
X141311Y103940D01*
D02*
G37*
G36*
X140311D02*
X140267Y103931D01*
X139806Y103623D01*
X139498Y103162D01*
X139489Y103118D01*
X140311D01*
Y103940D01*
D02*
G37*
G36*
X244601Y102150D02*
X243779D01*
Y101328D01*
X243823Y101337D01*
X244284Y101645D01*
X244592Y102106D01*
X244601Y102150D01*
D02*
G37*
G36*
X242779D02*
X241958D01*
X241967Y102106D01*
X242275Y101645D01*
X242736Y101337D01*
X242779Y101328D01*
Y102150D01*
D02*
G37*
G36*
X142133Y102118D02*
X141311D01*
Y101297D01*
X141355Y101305D01*
X141816Y101613D01*
X142124Y102074D01*
X142133Y102118D01*
D02*
G37*
G36*
X140311D02*
X139489D01*
X139498Y102074D01*
X139806Y101613D01*
X140267Y101305D01*
X140311Y101297D01*
Y102118D01*
D02*
G37*
G36*
X212949Y101971D02*
Y101150D01*
X213770D01*
X213762Y101193D01*
X213454Y101654D01*
X212993Y101962D01*
X212949Y101971D01*
D02*
G37*
G36*
X211949D02*
X211905Y101962D01*
X211444Y101654D01*
X211136Y101193D01*
X211127Y101150D01*
X211949D01*
Y101971D01*
D02*
G37*
G36*
X213770Y100150D02*
X212949D01*
Y99328D01*
X212993Y99337D01*
X213454Y99645D01*
X213762Y100106D01*
X213770Y100150D01*
D02*
G37*
G36*
X211949D02*
X211127D01*
X211136Y100106D01*
X211444Y99645D01*
X211905Y99337D01*
X211949Y99328D01*
Y100150D01*
D02*
G37*
G36*
X116311Y99534D02*
Y98713D01*
X117133D01*
X117124Y98756D01*
X116816Y99217D01*
X116355Y99525D01*
X116311Y99534D01*
D02*
G37*
G36*
X115311D02*
X115267Y99525D01*
X114806Y99217D01*
X114498Y98756D01*
X114489Y98713D01*
X115311D01*
Y99534D01*
D02*
G37*
G36*
X140779Y98034D02*
Y97213D01*
X141601D01*
X141592Y97256D01*
X141284Y97717D01*
X140823Y98025D01*
X140779Y98034D01*
D02*
G37*
G36*
X139779D02*
X139736Y98025D01*
X139275Y97717D01*
X138967Y97256D01*
X138958Y97213D01*
X139779D01*
Y98034D01*
D02*
G37*
G36*
X117133Y97713D02*
X116311D01*
Y96891D01*
X116355Y96900D01*
X116816Y97208D01*
X117124Y97669D01*
X117133Y97713D01*
D02*
G37*
G36*
X115311D02*
X114489D01*
X114498Y97669D01*
X114806Y97208D01*
X115267Y96900D01*
X115311Y96891D01*
Y97713D01*
D02*
G37*
G36*
X141601Y96213D02*
X140779D01*
Y95391D01*
X140823Y95400D01*
X141284Y95708D01*
X141592Y96169D01*
X141601Y96213D01*
D02*
G37*
G36*
X139779D02*
X138958D01*
X138967Y96169D01*
X139275Y95708D01*
X139736Y95400D01*
X139779Y95391D01*
Y96213D01*
D02*
G37*
G36*
X118780Y133179D02*
X118194Y133063D01*
X117698Y132731D01*
X117367Y132235D01*
X117250Y131650D01*
Y129783D01*
X80198Y92731D01*
X79867Y92235D01*
X79750Y91650D01*
Y85650D01*
X79867Y85064D01*
X80198Y84568D01*
X80694Y84237D01*
X81279Y84120D01*
X81865Y84237D01*
X82361Y84568D01*
X82692Y85064D01*
X82809Y85650D01*
Y91016D01*
X119861Y128068D01*
X120193Y128564D01*
X120309Y129150D01*
Y131650D01*
X120193Y132235D01*
X119861Y132731D01*
X119365Y133063D01*
X118780Y133179D01*
D02*
G37*
G36*
X85929Y81299D02*
X77630D01*
Y73000D01*
X85929D01*
Y81299D01*
D02*
G37*
G36*
Y71299D02*
X82279D01*
Y67650D01*
X85929D01*
Y71299D01*
D02*
G37*
G36*
X81279D02*
X77630D01*
Y67650D01*
X81279D01*
Y71299D01*
D02*
G37*
G36*
X153157Y66471D02*
Y65650D01*
X153979D01*
X153970Y65693D01*
X153662Y66154D01*
X153201Y66462D01*
X153157Y66471D01*
D02*
G37*
G36*
X152157D02*
X152114Y66462D01*
X151653Y66154D01*
X151345Y65693D01*
X151336Y65650D01*
X152157D01*
Y66471D01*
D02*
G37*
G36*
X153979Y64650D02*
X153157D01*
Y63828D01*
X153201Y63837D01*
X153662Y64145D01*
X153970Y64606D01*
X153979Y64650D01*
D02*
G37*
G36*
X152157D02*
X151336D01*
X151345Y64606D01*
X151653Y64145D01*
X152114Y63837D01*
X152157Y63828D01*
Y64650D01*
D02*
G37*
G36*
X85929Y66650D02*
X82279D01*
Y63000D01*
X85929D01*
Y66650D01*
D02*
G37*
G36*
X81279D02*
X77630D01*
Y63000D01*
X81279D01*
Y66650D01*
D02*
G37*
G36*
X82279Y59971D02*
Y59150D01*
X83101D01*
X83092Y59193D01*
X82784Y59654D01*
X82323Y59962D01*
X82279Y59971D01*
D02*
G37*
G36*
X81279D02*
X81236Y59962D01*
X80775Y59654D01*
X80467Y59193D01*
X80458Y59150D01*
X81279D01*
Y59971D01*
D02*
G37*
G36*
X83101Y58150D02*
X82279D01*
Y57328D01*
X82323Y57337D01*
X82784Y57645D01*
X83092Y58106D01*
X83101Y58150D01*
D02*
G37*
G36*
X81279D02*
X80458D01*
X80467Y58106D01*
X80775Y57645D01*
X81236Y57337D01*
X81279Y57328D01*
Y58150D01*
D02*
G37*
G36*
X155126Y42318D02*
Y41496D01*
X155947D01*
X155939Y41540D01*
X155631Y42001D01*
X155170Y42309D01*
X155126Y42318D01*
D02*
G37*
G36*
X154126D02*
X154082Y42309D01*
X153621Y42001D01*
X153313Y41540D01*
X153304Y41496D01*
X154126D01*
Y42318D01*
D02*
G37*
G36*
X155947Y40496D02*
X155126D01*
Y39674D01*
X155170Y39683D01*
X155631Y39991D01*
X155939Y40452D01*
X155947Y40496D01*
D02*
G37*
G36*
X154126D02*
X153304D01*
X153313Y40452D01*
X153621Y39991D01*
X154082Y39683D01*
X154126Y39674D01*
Y40496D01*
D02*
G37*
G36*
X163279Y24971D02*
Y24150D01*
X164101D01*
X164092Y24193D01*
X163784Y24654D01*
X163323Y24962D01*
X163279Y24971D01*
D02*
G37*
G36*
X162279D02*
X162236Y24962D01*
X161775Y24654D01*
X161467Y24193D01*
X161458Y24150D01*
X162279D01*
Y24971D01*
D02*
G37*
G36*
X164101Y23150D02*
X163279D01*
Y22328D01*
X163323Y22337D01*
X163784Y22645D01*
X164092Y23106D01*
X164101Y23150D01*
D02*
G37*
G36*
X162279D02*
X161458D01*
X161467Y23106D01*
X161775Y22645D01*
X162236Y22337D01*
X162279Y22328D01*
Y23150D01*
D02*
G37*
%LPD*%
D17*
X131280Y112150D02*
X214779D01*
X81279Y85650D02*
Y91650D01*
X118780Y129150D01*
Y131650D01*
X89280Y111150D02*
Y117650D01*
X85780Y107650D02*
X89280Y111150D01*
X83780Y107650D02*
X85780D01*
X155311Y139118D02*
X174311D01*
D44*
X81779Y77150D02*
D03*
Y67150D02*
D03*
D45*
X243280Y102650D02*
D03*
X214779Y112150D02*
D03*
X131280D02*
D03*
X81279Y85650D02*
D03*
X81779Y58650D02*
D03*
X118780Y131650D02*
D03*
X140811Y102618D02*
D03*
X89280Y117650D02*
D03*
X83780Y107650D02*
D03*
X51279Y131150D02*
D03*
X62279Y111650D02*
D03*
X96280Y140902D02*
D03*
X135780Y161650D02*
D03*
X155311Y139118D02*
D03*
X174311D02*
D03*
X154626Y40996D02*
D03*
X140279Y96713D02*
D03*
X115811Y98213D02*
D03*
X212449Y100650D02*
D03*
X162779Y23650D02*
D03*
X152657Y65150D02*
D03*
X182083Y146252D02*
D03*
X186122Y136587D02*
D03*
X172343D02*
D03*
M02*
