G04*
G04 #@! TF.GenerationSoftware,Altium Limited,Altium Designer,18.1.7 (191)*
G04*
G04 Layer_Color=8421504*
%FSLAX25Y25*%
%MOIN*%
G70*
G01*
G75*
%ADD19R,0.05354X0.02362*%
%ADD20R,0.03150X0.06299*%
%ADD21R,0.08268X0.11811*%
%ADD22R,0.02126X0.02362*%
%ADD23R,0.04724X0.04724*%
%ADD24R,0.05118X0.03937*%
%ADD25O,0.00381X0.06090*%
%ADD26O,0.06090X0.00381*%
%ADD27R,0.05906X0.05118*%
%ADD28R,0.03937X0.03543*%
%ADD29R,0.02835X0.02835*%
D19*
X67618Y103579D02*
D03*
Y99839D02*
D03*
Y96098D02*
D03*
X58366D02*
D03*
Y99839D02*
D03*
Y103579D02*
D03*
D20*
X150587Y141130D02*
D03*
X170272D02*
D03*
X165350D02*
D03*
X160429D02*
D03*
X155508D02*
D03*
X145665D02*
D03*
D21*
X180311Y152547D02*
D03*
X135626D02*
D03*
D22*
X223067Y90839D02*
D03*
X226468D02*
D03*
X223268Y100150D02*
D03*
X226669D02*
D03*
D23*
X150969Y18390D02*
D03*
Y27839D02*
D03*
D24*
X119468Y82465D02*
D03*
Y90339D02*
D03*
D25*
X140847Y118661D02*
D03*
X142815D02*
D03*
X144783D02*
D03*
X146752Y118661D02*
D03*
X148721D02*
D03*
X150689D02*
D03*
X152657D02*
D03*
X154626Y118661D02*
D03*
X156595Y118661D02*
D03*
X158563D02*
D03*
X160531D02*
D03*
X162500D02*
D03*
X164469D02*
D03*
X166437Y118661D02*
D03*
X168405D02*
D03*
X170374Y118661D02*
D03*
X172343D02*
D03*
X174311D02*
D03*
X176279D02*
D03*
X178248D02*
D03*
X180217Y118661D02*
D03*
X182185D02*
D03*
X184153D02*
D03*
X186122Y118661D02*
D03*
X188091D02*
D03*
Y59016D02*
D03*
X186122Y59016D02*
D03*
X184153D02*
D03*
X182185Y59016D02*
D03*
X180217D02*
D03*
X178248Y59016D02*
D03*
X176279D02*
D03*
X174311Y59016D02*
D03*
X172343D02*
D03*
X170374D02*
D03*
X168405D02*
D03*
X166437D02*
D03*
X164469D02*
D03*
X162500D02*
D03*
X160531D02*
D03*
X158563D02*
D03*
X156595D02*
D03*
X154626D02*
D03*
X152657Y59016D02*
D03*
X150689D02*
D03*
X148721Y59016D02*
D03*
X146752D02*
D03*
X144783Y59016D02*
D03*
X142815D02*
D03*
X140847D02*
D03*
D26*
X194291Y112461D02*
D03*
Y110492D02*
D03*
Y108524D02*
D03*
Y106555D02*
D03*
Y104587D02*
D03*
Y102618D02*
D03*
Y100650D02*
D03*
X194291Y98681D02*
D03*
X194291Y96713D02*
D03*
Y94744D02*
D03*
Y92776D02*
D03*
X194291Y90807D02*
D03*
Y88839D02*
D03*
Y86870D02*
D03*
Y84902D02*
D03*
X194291Y82933D02*
D03*
Y80965D02*
D03*
Y78996D02*
D03*
Y77028D02*
D03*
Y75059D02*
D03*
Y73090D02*
D03*
Y71122D02*
D03*
Y69153D02*
D03*
Y67185D02*
D03*
Y65216D02*
D03*
X134646D02*
D03*
Y67185D02*
D03*
Y69153D02*
D03*
X134646Y71122D02*
D03*
Y73090D02*
D03*
X134646Y75059D02*
D03*
Y77027D02*
D03*
X134646Y78996D02*
D03*
X134646Y80965D02*
D03*
Y82933D02*
D03*
X134646Y84902D02*
D03*
Y86870D02*
D03*
Y88839D02*
D03*
Y90807D02*
D03*
Y92776D02*
D03*
X134646Y94744D02*
D03*
Y96713D02*
D03*
X134646Y98681D02*
D03*
X134646Y100650D02*
D03*
Y102618D02*
D03*
Y104587D02*
D03*
Y106555D02*
D03*
Y108524D02*
D03*
Y110492D02*
D03*
Y112461D02*
D03*
D27*
X39469Y82839D02*
D03*
Y73839D02*
D03*
X106468Y135839D02*
D03*
Y126839D02*
D03*
X39469Y112339D02*
D03*
Y103339D02*
D03*
X92469Y112839D02*
D03*
Y121839D02*
D03*
X142815Y36339D02*
D03*
Y45339D02*
D03*
X77469Y112839D02*
D03*
Y121839D02*
D03*
X211469Y90839D02*
D03*
Y99839D02*
D03*
X239469Y90839D02*
D03*
Y99839D02*
D03*
D28*
X150969Y45839D02*
D03*
Y38839D02*
D03*
X123969Y135839D02*
D03*
Y142839D02*
D03*
D29*
X104000Y82465D02*
D03*
X107937D02*
D03*
X104000Y90339D02*
D03*
X107937D02*
D03*
M02*
